<svg xmlns="http://www.w3.org/2000/svg" viewBox="0 0 10 10" width="40" height="40" shape-rendering="crispEdges"><rect x="0.0" y="0.0" width="1" height="1" fill="#1b1f24"/><rect x="1.0" y="0.0" width="1" height="1" fill="#1b1f24"/><rect x="2.0" y="0.0" width="1" height="1" fill="#1b1f24"/><rect x="3.0" y="0.0" width="1" height="1" fill="#1b1f24"/><rect x="4.0" y="0.0" width="1" height="1" fill="#1b1f24"/><rect x="5.0" y="0.0" width="1" height="1" fill="#1b1f24"/><rect x="6.0" y="0.0" width="1" height="1" fill="#1b1f24"/><rect x="7.0" y="0.0" width="1" height="1" fill="#1b1f24"/><rect x="8.0" y="0.0" width="1" height="1" fill="#1b1f24"/><rect x="9.0" y="0.0" width="1" height="1" fill="#1b1f24"/><rect x="0.0" y="1.0" width="1" height="1" fill="#1b1f24"/><rect x="1.0" y="1.0" width="1" height="1" fill="#3b2a1e"/><rect x="2.0" y="1.0" width="1" height="1" fill="#3b2a1e"/><rect x="3.0" y="1.0" width="1" height="1" fill="#3b2a1e"/><rect x="4.0" y="1.0" width="1" height="1" fill="#3b2a1e"/><rect x="5.0" y="1.0" width="1" height="1" fill="#3b2a1e"/><rect x="6.0" y="1.0" width="1" height="1" fill="#3b2a1e"/><rect x="7.0" y="1.0" width="1" height="1" fill="#3b2a1e"/><rect x="8.0" y="1.0" width="1" height="1" fill="#3b2a1e"/><rect x="9.0" y="1.0" width="1" height="1" fill="#1b1f24"/><rect x="0.0" y="2.0" width="1" height="1" fill="#1b1f24"/><rect x="1.0" y="2.0" width="1" height="1" fill="#3b2a1e"/><rect x="2.0" y="2.0" width="1" height="1" fill="#3b2a1e"/><rect x="3.0" y="2.0" width="1" height="1" fill="#3b2a1e"/><rect x="4.0" y="2.0" width="1" height="1" fill="#3b2a1e"/><rect x="5.0" y="2.0" width="1" height="1" fill="#3b2a1e"/><rect x="6.0" y="2.0" width="1" height="1" fill="#3b2a1e"/><rect x="7.0" y="2.0" width="1" height="1" fill="#3b2a1e"/><rect x="8.0" y="2.0" width="1" height="1" fill="#3b2a1e"/><rect x="9.0" y="2.0" width="1" height="1" fill="#1b1f24"/><rect x="0.0" y="3.0" width="1" height="1" fill="#1b1f24"/><rect x="1.0" y="3.0" width="1" height="1" fill="#3b2a1e"/><rect x="2.0" y="3.0" width="1" height="1" fill="#e0ac7e"/><rect x="3.0" y="3.0" width="1" height="1" fill="#e0ac7e"/><rect x="4.0" y="3.0" width="1" height="1" fill="#e0ac7e"/><rect x="5.0" y="3.0" width="1" height="1" fill="#e0ac7e"/><rect x="6.0" y="3.0" width="1" height="1" fill="#e0ac7e"/><rect x="7.0" y="3.0" width="1" height="1" fill="#e0ac7e"/><rect x="8.0" y="3.0" width="1" height="1" fill="#c98e62"/><rect x="9.0" y="3.0" width="1" height="1" fill="#1b1f24"/><rect x="0.0" y="4.0" width="1" height="1" fill="#1b1f24"/><rect x="1.0" y="4.0" width="1" height="1" fill="#e0ac7e"/><rect x="2.0" y="4.0" width="1" height="1" fill="#e0ac7e"/><rect x="3.0" y="4.0" width="1" height="1" fill="#e0ac7e"/><rect x="4.0" y="4.0" width="1" height="1" fill="#e0ac7e"/><rect x="5.0" y="4.0" width="1" height="1" fill="#e0ac7e"/><rect x="6.0" y="4.0" width="1" height="1" fill="#e0ac7e"/><rect x="7.0" y="4.0" width="1" height="1" fill="#e0ac7e"/><rect x="8.0" y="4.0" width="1" height="1" fill="#e0ac7e"/><rect x="9.0" y="4.0" width="1" height="1" fill="#1b1f24"/><rect x="0.0" y="5.0" width="1" height="1" fill="#1b1f24"/><rect x="1.0" y="5.0" width="1" height="1" fill="#e0ac7e"/><rect x="2.0" y="5.0" width="1" height="1" fill="#ffffff"/><rect x="3.0" y="5.0" width="1" height="1" fill="#2d4a8a"/><rect x="4.0" y="5.0" width="1" height="1" fill="#e0ac7e"/><rect x="5.0" y="5.0" width="1" height="1" fill="#e0ac7e"/><rect x="6.0" y="5.0" width="1" height="1" fill="#2d4a8a"/><rect x="7.0" y="5.0" width="1" height="1" fill="#ffffff"/><rect x="8.0" y="5.0" width="1" height="1" fill="#e0ac7e"/><rect x="9.0" y="5.0" width="1" height="1" fill="#1b1f24"/><rect x="0.0" y="6.0" width="1" height="1" fill="#1b1f24"/><rect x="1.0" y="6.0" width="1" height="1" fill="#e0ac7e"/><rect x="2.0" y="6.0" width="1" height="1" fill="#e0ac7e"/><rect x="3.0" y="6.0" width="1" height="1" fill="#e0ac7e"/><rect x="4.0" y="6.0" width="1" height="1" fill="#9c5a3c"/><rect x="5.0" y="6.0" width="1" height="1" fill="#9c5a3c"/><rect x="6.0" y="6.0" width="1" height="1" fill="#e0ac7e"/><rect x="7.0" y="6.0" width="1" height="1" fill="#e0ac7e"/><rect x="8.0" y="6.0" width="1" height="1" fill="#e0ac7e"/><rect x="9.0" y="6.0" width="1" height="1" fill="#1b1f24"/><rect x="0.0" y="7.0" width="1" height="1" fill="#1b1f24"/><rect x="1.0" y="7.0" width="1" height="1" fill="#c98e62"/><rect x="2.0" y="7.0" width="1" height="1" fill="#e0ac7e"/><rect x="3.0" y="7.0" width="1" height="1" fill="#9c5a3c"/><rect x="4.0" y="7.0" width="1" height="1" fill="#e0ac7e"/><rect x="5.0" y="7.0" width="1" height="1" fill="#e0ac7e"/><rect x="6.0" y="7.0" width="1" height="1" fill="#9c5a3c"/><rect x="7.0" y="7.0" width="1" height="1" fill="#e0ac7e"/><rect x="8.0" y="7.0" width="1" height="1" fill="#c98e62"/><rect x="9.0" y="7.0" width="1" height="1" fill="#1b1f24"/><rect x="0.0" y="8.0" width="1" height="1" fill="#1b1f24"/><rect x="1.0" y="8.0" width="1" height="1" fill="#c98e62"/><rect x="2.0" y="8.0" width="1" height="1" fill="#e0ac7e"/><rect x="3.0" y="8.0" width="1" height="1" fill="#e0ac7e"/><rect x="4.0" y="8.0" width="1" height="1" fill="#e0ac7e"/><rect x="5.0" y="8.0" width="1" height="1" fill="#e0ac7e"/><rect x="6.0" y="8.0" width="1" height="1" fill="#e0ac7e"/><rect x="7.0" y="8.0" width="1" height="1" fill="#e0ac7e"/><rect x="8.0" y="8.0" width="1" height="1" fill="#c98e62"/><rect x="9.0" y="8.0" width="1" height="1" fill="#1b1f24"/><rect x="0.0" y="9.0" width="1" height="1" fill="#1b1f24"/><rect x="1.0" y="9.0" width="1" height="1" fill="#1b1f24"/><rect x="2.0" y="9.0" width="1" height="1" fill="#1b1f24"/><rect x="3.0" y="9.0" width="1" height="1" fill="#1b1f24"/><rect x="4.0" y="9.0" width="1" height="1" fill="#1b1f24"/><rect x="5.0" y="9.0" width="1" height="1" fill="#1b1f24"/><rect x="6.0" y="9.0" width="1" height="1" fill="#1b1f24"/><rect x="7.0" y="9.0" width="1" height="1" fill="#1b1f24"/><rect x="8.0" y="9.0" width="1" height="1" fill="#1b1f24"/><rect x="9.0" y="9.0" width="1" height="1" fill="#1b1f24"/></svg>